<?xml version="1.0" encoding="utf-8"?>
<!-- Generator: Adobe Illustrator 26.0.0, SVG Export Plug-In . SVG Version: 6.00 Build 0)  -->
<svg version="1.1" id="레이어_1" xmlns="http://www.w3.org/2000/svg" xmlns:xlink="http://www.w3.org/1999/xlink" x="0px"
	 y="0px" viewBox="0 0 20 16" style="enable-background:new 0 0 20 16;" xml:space="preserve">
<style type="text/css">
	.st0{fill:#FFFFFF;}
</style>
<g>
	<path class="st0" d="M9.6,10.2c0.2,0.2,0.6,0.2,0.8,0c0,0,0,0,0,0L13.7,7c0.2-0.2,0.2-0.6,0-0.9s-0.6-0.2-0.9,0l-2.2,2.2V0.6
		C10.6,0.3,10.3,0,10,0C9.7,0,9.4,0.3,9.4,0.6v7.8L7.2,6.1c-0.2-0.2-0.6-0.2-0.9,0S6.1,6.7,6.3,7L9.6,10.2z"/>
	<path class="st0" d="M19.4,8.8c-0.3,0-0.6,0.3-0.6,0.6V13c0,1-0.8,1.8-1.8,1.8H3c-1,0-1.8-0.8-1.8-1.8V9.4c0-0.3-0.3-0.6-0.6-0.6
		S0,9.1,0,9.4V13c0,1.7,1.3,3,3,3h14c1.7,0,3-1.3,3-3V9.4C20,9.1,19.7,8.8,19.4,8.8z"/>
</g>
</svg>
