<?xml version="1.0" encoding="UTF-8"?>
<svg width="40px" height="40px" viewBox="0 0 40 40" version="1.1" xmlns="http://www.w3.org/2000/svg" xmlns:xlink="http://www.w3.org/1999/xlink">
    <title>plus_out</title>
    <defs>
        <polygon id="path-1" points="0 0 19.9995 0 19.9995 20 0 20"></polygon>
    </defs>
    <g id="plus_out" stroke="none" stroke-width="1" fill="none" fill-rule="evenodd">
        <g id="Group-3" transform="translate(10.000000, 10.000000)">
            <mask id="mask-2" fill="white">
                <use xlink:href="#path-1"></use>
            </mask>
            <g id="Clip-2"></g>
            <path d="M0.7695,10.769 L9.2305,10.769 L9.2305,19.231 C9.2305,19.655 9.5755,20 9.9995,20 C10.4245,20 10.7695,19.655 10.7695,19.231 L10.7695,10.769 L19.2305,10.769 C19.6555,10.769 19.9995,10.425 19.9995,10 C19.9995,9.575 19.6555,9.231 19.2305,9.231 L10.7695,9.231 L10.7695,0.769 C10.7695,0.345 10.4245,0 9.9995,0 C9.5755,0 9.2305,0.345 9.2305,0.769 L9.2305,9.231 L0.7695,9.231 C0.3445,9.231 -0.0005,9.575 -0.0005,10 C-0.0005,10.425 0.3445,10.769 0.7695,10.769" id="Fill-1" fill="#4E3836" mask="url(#mask-2)"></path>
        </g>
    </g>
</svg>